<?xml version="1.0" encoding="UTF-8" standalone="no"?>
<svg
   version="1.1"
   id="Layer_1"
   x="0px"
   y="0px"
   viewBox="0 0 512 512"
   style="enable-background:new 0 0 512 512;"
   width="32"
   height="32"
   fill="white"
   stroke="white"
   xml:space="preserve"
   sodipodi:docname="a-horaires.svg"
   inkscape:version="1.3 (0e150ed, 2023-07-21)"
   xmlns:inkscape="http://www.inkscape.org/namespaces/inkscape"
   xmlns:sodipodi="http://sodipodi.sourceforge.net/DTD/sodipodi-0.dtd"
   xmlns="http://www.w3.org/2000/svg"
   xmlns:svg="http://www.w3.org/2000/svg"><defs
   id="defs9" /><sodipodi:namedview
   id="namedview9"
   pagecolor="#ffffff"
   bordercolor="#000000"
   borderopacity="0.25"
   inkscape:showpageshadow="2"
   inkscape:pageopacity="0.0"
   inkscape:pagecheckerboard="0"
   inkscape:deskcolor="#d1d1d1"
   inkscape:zoom="25.3125"
   inkscape:cx="15.980247"
   inkscape:cy="16"
   inkscape:window-width="1920"
   inkscape:window-height="1043"
   inkscape:window-x="0"
   inkscape:window-y="0"
   inkscape:window-maximized="1"
   inkscape:current-layer="Layer_1" />&#10;<g
   id="g9"
   style="fill:#2c96a7;fill-opacity:1">&#10;	<g
   id="g1"
   style="fill:#2c96a7;fill-opacity:1">&#10;		<path
   d="M256.006,0C114.844,0,0,114.844,0,256.006C0,397.162,114.844,512,256.006,512C397.162,512,512,397.162,512,256.006    C512,114.844,397.162,0,256.006,0z M256.006,487.503c-127.655,0-231.509-103.849-231.509-231.497    c0-127.655,103.854-231.509,231.509-231.509c127.648,0,231.497,103.854,231.497,231.509    C487.503,383.654,383.654,487.503,256.006,487.503z"
   id="path1"
   style="fill:#2c96a7;fill-opacity:1" />&#10;	</g>&#10;	<g
   id="g2"
   style="fill:#2c96a7;fill-opacity:1">&#10;		<path
   d="M427.321,147.381c-3.628-5.71-11.196-7.401-16.908-3.77c-5.709,3.627-7.398,11.196-3.771,16.907    c18.114,28.515,27.689,61.534,27.689,95.488c0,98.329-79.997,178.326-178.326,178.326c-98.336,0-178.338-79.997-178.338-178.326    c0-98.336,80.001-178.338,178.338-178.338c28.943,0,57.676,7.088,83.09,20.499c5.983,3.16,13.393,0.865,16.549-5.116    c3.158-5.983,0.867-13.393-5.116-16.549c-28.925-15.263-61.61-23.331-94.522-23.331c-111.844,0-202.835,90.992-202.835,202.835    c0,111.837,90.992,202.823,202.835,202.823c111.837,0,202.823-90.986,202.823-202.823    C458.829,217.394,447.933,179.831,427.321,147.381z"
   id="path2"
   style="fill:#2c96a7;fill-opacity:1" />&#10;	</g>&#10;	<g
   id="g3"
   style="fill:#2c96a7;fill-opacity:1">&#10;		<path
   d="M397.849,111.024c-2.778-2.718-5.68-5.398-8.623-7.965c-5.099-4.445-12.836-3.916-17.281,1.182    c-4.446,5.099-3.916,12.835,1.182,17.281c2.592,2.26,5.146,4.619,7.589,7.011c2.382,2.331,5.476,3.494,8.565,3.494    c3.18,0,6.356-1.23,8.755-3.682C402.767,123.512,402.683,115.757,397.849,111.024z"
   id="path3"
   style="fill:#2c96a7;fill-opacity:1" />&#10;	</g>&#10;	<g
   id="g4"
   style="fill:#2c96a7;fill-opacity:1">&#10;		<path
   d="M256.006,108.828c-6.764,0-12.248,5.485-12.248,12.249v20.92c0,6.764,5.485,12.248,12.248,12.248    c6.764,0,12.249-5.485,12.249-12.248v-20.92C268.255,114.313,262.77,108.828,256.006,108.828z"
   id="path4"
   style="fill:#2c96a7;fill-opacity:1" />&#10;	</g>&#10;	<g
   id="g5"
   style="fill:#2c96a7;fill-opacity:1">&#10;		<path
   d="M138.825,246.918h-20.92c-6.764,0-12.249,5.485-12.249,12.249c0,6.764,5.485,12.248,12.249,12.248h20.92    c6.764,0,12.248-5.485,12.248-12.248C151.073,252.403,145.588,246.918,138.825,246.918z"
   id="path5"
   style="fill:#2c96a7;fill-opacity:1" />&#10;	</g>&#10;	<g
   id="g6"
   style="fill:#2c96a7;fill-opacity:1">&#10;		<path
   d="M255.994,364.099c-6.764,0-12.249,5.484-12.249,12.249v20.92c0,6.764,5.485,12.249,12.249,12.249    c6.764,0,12.248-5.485,12.248-12.249v-20.92C268.242,369.584,262.758,364.099,255.994,364.099z"
   id="path6"
   style="fill:#2c96a7;fill-opacity:1" />&#10;	</g>&#10;	<g
   id="g7"
   style="fill:#2c96a7;fill-opacity:1">&#10;		<path
   d="M394.096,246.93h-20.92c-6.764,0-12.249,5.485-12.249,12.248c0,6.764,5.484,12.249,12.249,12.249h20.92    c6.764,0,12.249-5.485,12.249-12.249C406.344,252.415,400.859,246.93,394.096,246.93z"
   id="path7"
   style="fill:#2c96a7;fill-opacity:1" />&#10;	</g>&#10;	<g
   id="g8"
   style="fill:#2c96a7;fill-opacity:1">&#10;		<path
   d="M332.438,182.733c-4.784-4.782-12.538-4.782-17.323,0l-38.865,38.865c-6.064-3.574-13.03-5.522-20.246-5.522    c-7.224,0-14.196,1.949-20.259,5.52l-72.338-72.338c-4.784-4.782-12.538-4.782-17.323,0c-4.783,4.783-4.783,12.539,0,17.323    l73.37,73.37c-2.206,5.022-3.381,10.486-3.381,16.055c0,22.011,17.912,39.918,39.93,39.918c22.011,0,39.918-17.907,39.918-39.918    c0-5.569-1.175-11.032-3.381-16.055l39.895-39.895C337.221,195.273,337.221,187.517,332.438,182.733z M256.006,271.427    c-8.509,0-15.433-6.917-15.433-15.421c0-4.694,1.99-8.013,3.682-9.996c2.931-3.454,7.214-5.436,11.751-5.436    c4.529,0,8.808,1.982,11.739,5.436c0.007,0.009,0.015,0.017,0.021,0.026c1.671,1.959,3.661,5.278,3.661,9.972    C271.427,264.509,264.509,271.427,256.006,271.427z"
   id="path8"
   style="fill:#2c96a7;fill-opacity:1" />&#10;	</g>&#10;</g>&#10;</svg>
