<?xml version="1.0" encoding="UTF-8" standalone="no"?>
<svg
   version="1.1"
   id="Layer_1"
   x="0px"
   y="0px"
   viewBox="0 0 512 512"
   style="enable-background:new 0 0 512 512;"
   width="32"
   height="32"
   fill="white"
   stroke="white"
   xml:space="preserve"
   sodipodi:docname="a-alimentation-bio.svg"
   inkscape:version="1.3 (0e150ed, 2023-07-21)"
   xmlns:inkscape="http://www.inkscape.org/namespaces/inkscape"
   xmlns:sodipodi="http://sodipodi.sourceforge.net/DTD/sodipodi-0.dtd"
   xmlns="http://www.w3.org/2000/svg"
   xmlns:svg="http://www.w3.org/2000/svg"><defs
   id="defs4" /><sodipodi:namedview
   id="namedview4"
   pagecolor="#ffffff"
   bordercolor="#000000"
   borderopacity="0.25"
   inkscape:showpageshadow="2"
   inkscape:pageopacity="0.0"
   inkscape:pagecheckerboard="0"
   inkscape:deskcolor="#d1d1d1"
   inkscape:zoom="25.3125"
   inkscape:cx="15.980247"
   inkscape:cy="16"
   inkscape:window-width="1920"
   inkscape:window-height="1043"
   inkscape:window-x="0"
   inkscape:window-y="0"
   inkscape:window-maximized="1"
   inkscape:current-layer="Layer_1" />&#10;<g
   id="g4"
   style="fill:#2c96a7;fill-opacity:1;stroke:none">&#10;	<g
   id="g1"
   style="fill:#2c96a7;fill-opacity:1;stroke:none">&#10;		<path
   d="M369.733,310.684c-1.959-1.959-4.615-3.06-7.387-3.06c-2.771,0-5.428,1.101-7.387,3.06l-2.954,2.954l-57.595-57.594    l37.197-37.198c15.117,9.125,31.735,13.993,48.509,13.993c27.307,0,54.27-12.529,77.974-36.233    c24.146-24.147,42.401-56.865,50.085-89.766c8.539-36.568,2.675-67.274-16.513-86.462C478.39,7.107,459.202,0.092,436.172,0.092    c-40.001,0-88.522,21.644-120.738,53.861c-23.718,23.719-36.247,50.698-36.232,78.021c0.009,16.756,4.876,33.357,13.992,48.46    l-37.198,37.198l-24.445-24.444c24.331-27.504,22.415-70.665-5.071-98.153L134.551,3.107c-4.08-4.078-10.695-4.078-14.774,0    L98.983,23.9c-1.959,1.959-3.06,4.617-3.06,7.387s1.101,5.428,3.06,7.387l86.157,86.157c1.921,1.92,3.016,4.4,3.083,6.981    c0.062,2.376-0.776,4.556-2.358,6.138c-1.523,1.523-3.616,2.361-5.893,2.361c-2.669,0-5.236-1.096-7.226-3.087L86.589,51.07    c-4.08-4.08-10.696-4.08-14.774,0L51.022,71.862c-4.08,4.08-4.08,10.695,0,14.774l86.156,86.156    c1.921,1.921,3.017,4.4,3.084,6.982c0.063,2.376-0.775,4.556-2.359,6.139c-1.522,1.521-3.616,2.36-5.894,2.36    c-2.669,0-5.235-1.096-7.225-3.087L38.627,99.031c-1.959-1.959-4.616-3.06-7.387-3.06c-2.771,0-5.428,1.101-7.387,3.06    L3.06,119.825c-4.08,4.08-4.08,10.695,0,14.774l91.929,91.929c14.251,14.25,32.949,22.098,52.65,22.098    c17.075,0,33.069-6.025,45.5-17.027l24.445,24.446l-57.567,57.567l-2.955-2.956c-1.959-1.959-4.617-3.06-7.387-3.06    c-2.771,0-5.428,1.101-7.387,3.06L12.387,440.561c-7.894,7.892-12.241,18.385-12.241,29.547c0,11.162,4.347,21.655,12.24,29.548    c7.893,7.893,18.387,12.239,29.548,12.239c11.163,0,21.656-4.347,29.549-12.239l129.901-129.902c4.08-4.08,4.08-10.695,0-14.774    l-2.954-2.954l57.566-57.567l57.595,57.595l-2.956,2.956c-1.959,1.959-3.06,4.617-3.06,7.387s1.101,5.428,3.06,7.387    l129.933,129.927c7.891,7.894,18.385,12.241,29.546,12.241c11.162,0,21.656-4.347,29.549-12.239    c7.893-7.893,12.24-18.387,12.24-29.548c0-11.163-4.347-21.657-12.24-29.549L369.733,310.684z M330.208,68.727    c28.556-28.555,71.14-47.741,105.964-47.741c12.111,0,29.006,2.458,40.715,14.167c13.69,13.69,17.676,38.086,10.94,66.935    c-6.722,28.781-23.362,58.591-44.513,79.743c-19.7,19.701-41.554,30.114-63.2,30.114c-19.911,0-39.007-8.573-55.226-24.791    C297.549,159.816,284.589,114.348,330.208,68.727z M181.386,214.001c-8.855,8.854-20.84,13.729-33.748,13.729    c-14.121,0-27.573-5.675-37.876-15.978l-84.54-84.541l6.019-6.019l78.767,78.767c5.937,5.938,13.751,9.207,22.002,9.207    c7.859-0.001,15.198-3.012,20.666-8.48c5.676-5.676,8.685-13.296,8.471-21.457c-0.207-7.956-3.474-15.49-9.196-21.213    L73.183,79.249l6.018-6.019l78.768,78.768c5.937,5.937,13.75,9.206,22,9.206c7.858,0,15.198-3.012,20.667-8.48    c5.675-5.675,8.684-13.294,8.471-21.456c-0.207-7.956-3.473-15.49-9.195-21.214l-78.769-78.768l6.02-6.019l84.541,84.54    c20.366,20.367,21.375,52.498,2.247,71.625L181.386,214.001z M208.011,216.924l8.863-8.864l24.347,24.347l-8.864,8.864    L208.011,216.924z M56.709,484.882c-3.947,3.946-9.193,6.12-14.775,6.12c-5.581,0-10.828-2.174-14.774-6.119    c-3.946-3.947-6.12-9.193-6.12-14.775c0-5.58,2.173-10.825,6.12-14.772l122.514-122.517l29.549,29.549L56.709,484.882z     M183.655,337.25l-8.864-8.864l131.011-131.01c1.389,1.543,2.823,3.064,4.313,4.554c1.489,1.489,3.009,2.922,4.551,4.31    L183.655,337.25z M270.77,279.683l8.864-8.864l57.595,57.594l-8.865,8.865L270.77,279.683z M484.89,484.936    c-3.947,3.947-9.194,6.12-14.775,6.12c-5.58,0-10.825-2.173-14.771-6.12l-122.547-122.54l14.774-14.775l11.82-11.82    c0.001-0.001,0.002-0.003,0.004-0.004l2.95-2.951l122.543,122.542c3.947,3.946,6.12,9.193,6.12,14.775    C491.01,475.744,488.836,480.992,484.89,484.936z"
   id="path1"
   style="fill:#2c96a7;fill-opacity:1;stroke:none" />&#10;	</g>&#10;	<g
   id="g2"
   style="fill:#2c96a7;fill-opacity:1;stroke:none">&#10;		<path
   d="M410.571,48.487c-2.13-5.362-8.204-7.985-13.565-5.853l-0.275,0.11c-5.349,2.163-7.932,8.252-5.77,13.601    c1.641,4.067,5.555,6.535,9.688,6.535c1.304,0,2.63-0.246,3.912-0.765l0.157-0.062C410.08,59.922,412.7,53.85,410.571,48.487z"
   id="path2"
   style="fill:#2c96a7;fill-opacity:1;stroke:none" />&#10;	</g>&#10;	<g
   id="g3"
   style="fill:#2c96a7;fill-opacity:1;stroke:none">&#10;		<path
   d="M379.456,62.76c-3.364-4.689-9.89-5.763-14.578-2.401c-6.711,4.814-12.935,10.076-18.5,15.639    c-16.66,16.661-26.208,35.022-27.612,53.097c-1.347,17.324,4.91,33.862,17.614,46.567c2.04,2.04,4.715,3.06,7.388,3.06    c2.673,0,5.348-1.02,7.387-3.06c4.08-4.08,4.08-10.695,0-14.775c-18.54-18.54-14.709-45.406,9.998-70.114    c4.762-4.763,10.112-9.282,15.902-13.435C381.744,73.975,382.819,67.448,379.456,62.76z"
   id="path3"
   style="fill:#2c96a7;fill-opacity:1;stroke:none" />&#10;	</g>&#10;</g>&#10;</svg>
