<?xml version="1.0" encoding="UTF-8" standalone="no"?>
<svg
   version="1.1"
   id="Layer_1"
   x="0px"
   y="0px"
   viewBox="0 0 512 512"
   style="enable-background:new 0 0 512 512;"
   width="32"
   height="32"
   fill="white"
   stroke="white"
   xml:space="preserve"
   sodipodi:docname="a-changes-bio.svg"
   inkscape:version="1.3 (0e150ed, 2023-07-21)"
   xmlns:inkscape="http://www.inkscape.org/namespaces/inkscape"
   xmlns:sodipodi="http://sodipodi.sourceforge.net/DTD/sodipodi-0.dtd"
   xmlns="http://www.w3.org/2000/svg"
   xmlns:svg="http://www.w3.org/2000/svg"><defs
   id="defs3" /><sodipodi:namedview
   id="namedview3"
   pagecolor="#ffffff"
   bordercolor="#000000"
   borderopacity="0.25"
   inkscape:showpageshadow="2"
   inkscape:pageopacity="0.0"
   inkscape:pagecheckerboard="0"
   inkscape:deskcolor="#d1d1d1"
   inkscape:zoom="25.3125"
   inkscape:cx="15.980247"
   inkscape:cy="16"
   inkscape:window-width="1920"
   inkscape:window-height="1043"
   inkscape:window-x="0"
   inkscape:window-y="0"
   inkscape:window-maximized="1"
   inkscape:current-layer="Layer_1" />&#10;<g
   id="g3"
   style="fill:#2c96a7;fill-opacity:1">&#10;	<g
   id="g1"
   style="fill:#2c96a7;fill-opacity:1">&#10;		<path
   d="M497.67,46.071H256.007H14.33C6.416,46.071,0,52.487,0,60.401V174.77v61.619v53.709    c0,46.981,18.291,91.137,51.504,124.332c33.224,33.209,77.378,51.498,124.326,51.498h80.177h80.177    c46.948,0,91.102-18.289,124.329-51.501C493.715,381.226,512,337.073,512,290.099V60.401C512,52.487,505.584,46.071,497.67,46.071    z M28.66,74.731h213.017v29.821H28.66V74.731z M28.66,189.1h52.778v32.959H28.66V189.1z M162.862,436.697    c-34.405-2.986-66.367-17.819-91.096-42.537c-24.391-24.378-39.164-55.823-42.419-89.731h37.847    c52.752,0,95.668,42.917,95.668,95.668V436.697z M440.251,394.159c-24.731,24.718-56.693,39.551-91.098,42.537v-36.6    c0-52.752,42.917-95.668,95.668-95.668h37.831C479.4,338.334,464.633,369.778,440.251,394.159z M483.34,275.768H444.82    c-68.555,0-124.328,55.773-124.328,124.328v37.172h-64.485h-64.485v-37.172c0-68.555-55.773-124.328-124.328-124.328H28.66    v-25.049h67.108c7.915,0,14.33-6.416,14.33-14.33V174.77c0-7.914-6.416-14.33-14.33-14.33H28.66v-27.227h213.017v72.367    c0,7.914,6.416,14.33,14.33,14.33c7.915,0,14.33-6.416,14.33-14.33v-72.367h119.417c7.914,0,14.33-6.416,14.33-14.33    c0-7.915-6.416-14.33-14.33-14.33H270.337V74.731H483.34v85.708h-67.094c-7.914,0-14.33,6.416-14.33,14.33v61.619    c0,7.914,6.416,14.33,14.33,14.33h67.094V275.768z M483.34,222.059h-52.763V189.1h52.763V222.059z"
   id="path1"
   style="fill:#2c96a7;fill-opacity:1" />&#10;	</g>&#10;	<g
   id="g2"
   style="fill:#2c96a7;fill-opacity:1">&#10;		<path
   d="M451.133,104.552h-11.228c-7.915,0-14.33,6.416-14.33,14.33c0,7.914,6.416,14.33,14.33,14.33h11.228    c7.915,0,14.33-6.416,14.33-14.33C465.463,110.968,459.047,104.552,451.133,104.552z"
   id="path2"
   style="fill:#2c96a7;fill-opacity:1" />&#10;	</g>&#10;</g>&#10;</svg>
