<?xml version="1.0" encoding="UTF-8" standalone="no"?>
<svg xmlns:inkscape="http://www.inkscape.org/namespaces/inkscape" xmlns:sodipodi="http://sodipodi.sourceforge.net/DTD/sodipodi-0.dtd" xmlns="http://www.w3.org/2000/svg" xmlns:svg="http://www.w3.org/2000/svg" version="1.1" id="HEART" width="32" height="32" viewBox="0 0 899.98875 899.98875" xml:space="preserve" fill="#000000"><defs id="defs172"></defs>

<g id="SVGRepo_bgCarrier" stroke-width="0"></g>

<g id="SVGRepo_tracerCarrier" stroke-linecap="round" stroke-linejoin="round"></g>

<g id="SVGRepo_iconCarrier" transform="matrix(0.50067313,0,0,0.50067313,0.60468484,-31.594666)"> <g id="g166"> <path fill="#2c96a7" d="m 1598.646,483.59 c 0,-159.066 -151.555,-242.271 -232.804,-242.271 -17.445,0 -31.592,14.14 -31.592,31.594 0,17.444 14.146,31.592 31.592,31.592 50.731,0 169.618,60.929 169.618,179.084 0,17.444 14.147,31.593 31.593,31.593 17.455,10e-4 31.593,-14.148 31.593,-31.592 z" id="path162"></path> <path fill="#2c96a7" d="m 1245.167,67.346 c -8.005,0 -15.974,0.176 -23.897,0.515 C 1096.952,61.427 981.574,107.052 896.562,185.757 802.382,111.649 683.698,67.346 554.832,67.346 249.563,67.346 1.211,315.7 1.211,620.971 c 0,169.59 76.672,321.587 197.146,423.214 l 679.305,679.309 c 5.924,5.923 13.963,9.246 22.337,9.246 8.384,0 16.413,-3.323 22.347,-9.246 l 679.218,-679.238 C 1722.083,942.62 1798.791,790.597 1798.791,620.971 1798.79,315.7 1550.438,67.346 1245.167,67.346 Z M 899.999,1656.474 394.391,1150.857 241.498,997.96 181.393,937.859 c -0.744,-0.749 -1.52,-1.445 -2.323,-2.098 C 107.546,850.521 64.397,740.695 64.397,620.97 c 0,-270.426 220.008,-490.44 490.435,-490.44 111.765,0 214.891,37.604 297.452,100.783 0.309,0.229 0.599,0.476 0.908,0.714 -56.627,69.7 -92.777,157.083 -98.507,253.368 -1.04,17.418 12.235,32.377 29.654,33.409 0.643,0.044 1.278,0.062 1.913,0.062 16.581,0 30.508,-12.94 31.505,-29.715 5.059,-85.082 37.825,-162.045 88.959,-222.683 13.021,-12.438 26.683,-24.197 40.999,-35.154 76.84,-58.798 171.504,-95.406 274.348,-100.202 1.604,0.048 3.183,-0.013 4.733,-0.194 6.101,-0.229 12.218,-0.387 18.371,-0.387 270.434,0 490.438,220.014 490.438,490.44 0,119.707 -43.133,229.515 -114.648,314.755 -0.811,0.671 -1.596,1.375 -2.354,2.133 l -60.153,60.146 -152.843,152.852 z" id="path164"></path> </g> </g>

</svg>
