<?xml version="1.0" encoding="UTF-8" standalone="no"?>
<svg
   version="1.1"
   id="Layer_1"
   x="0px"
   y="0px"
   viewBox="0 0 512 512"
   style="enable-background:new 0 0 512 512;"
   width="32"
   height="32"
   fill="white"
   stroke="white"
   xml:space="preserve"
   sodipodi:docname="a-lait-maternel.svg"
   inkscape:version="1.3 (0e150ed, 2023-07-21)"
   xmlns:inkscape="http://www.inkscape.org/namespaces/inkscape"
   xmlns:sodipodi="http://sodipodi.sourceforge.net/DTD/sodipodi-0.dtd"
   xmlns="http://www.w3.org/2000/svg"
   xmlns:svg="http://www.w3.org/2000/svg"><defs
   id="defs3" /><sodipodi:namedview
   id="namedview3"
   pagecolor="#ffffff"
   bordercolor="#000000"
   borderopacity="0.25"
   inkscape:showpageshadow="2"
   inkscape:pageopacity="0.0"
   inkscape:pagecheckerboard="0"
   inkscape:deskcolor="#d1d1d1"
   inkscape:zoom="25.3125"
   inkscape:cx="15.980247"
   inkscape:cy="16"
   inkscape:window-width="1920"
   inkscape:window-height="1043"
   inkscape:window-x="0"
   inkscape:window-y="0"
   inkscape:window-maximized="1"
   inkscape:current-layer="Layer_1" />&#10;<g
   id="g3"
   style="fill:#2c96a7;fill-opacity:1">&#10;	<g
   id="g1"
   style="fill:#2c96a7;fill-opacity:1">&#10;		<path
   d="M315.095,294.683h-1.083c-5.77,0-10.449,4.678-10.449,10.449s4.679,10.449,10.449,10.449h1.083    c5.77,0,10.449-4.678,10.449-10.449S320.865,294.683,315.095,294.683z"
   id="path1"
   style="fill:#2c96a7;fill-opacity:1" />&#10;	</g>&#10;	<g
   id="g2"
   style="fill:#2c96a7;fill-opacity:1">&#10;		<path
   d="M375.375,160.049c1.339-3.192,2.08-6.695,2.08-10.367c0-13.605-10.152-24.876-23.276-26.654    c-13.238-19.266-43.743-30.257-59.304-33.545c-0.266-0.056-0.484-0.113-0.658-0.166c-0.074-3.575,3.853-12.343,5.598-16.24    c2.032-4.538,3.788-8.457,4.593-12.057c0.896-4.008,1.333-7.702,1.333-11.29C305.741,22.311,283.428,0.003,256,0    c-27.427,0.002-49.739,22.311-49.739,49.729c0,3.582,0.436,7.272,1.332,11.292c0.806,3.598,2.561,7.516,4.592,12.053    c1.746,3.897,5.674,12.667,5.599,16.242c-0.174,0.052-0.392,0.11-0.658,0.166c-15.562,3.288-46.065,14.28-59.304,33.545    c-13.124,1.778-23.276,13.05-23.276,26.654c0,3.673,0.742,7.175,2.08,10.367c-28.123,10.2-48.273,37.181-48.273,68.784v210.024    c0,40.331,32.812,73.143,73.143,73.143h189.01c40.331,0,73.143-32.812,73.143-73.143V228.833    C423.647,197.23,403.498,170.249,375.375,160.049z M221.446,109.929c8.841-1.868,13.021-6.829,14.972-10.663    c5.53-10.864-0.398-24.099-5.161-34.733c-1.372-3.064-2.927-6.536-3.272-8.073c-0.557-2.497-0.829-4.699-0.829-6.73    c0-15.896,12.94-28.829,28.841-28.831c15.904,0.001,28.843,12.935,28.843,28.831c0,2.033-0.272,4.233-0.83,6.724    c-0.346,1.545-1.901,5.019-3.273,8.082c-4.763,10.633-10.688,23.868-5.16,34.73c1.951,3.833,6.132,8.795,14.972,10.663    c10.911,2.305,23.11,6.998,32.634,12.847H188.81C198.336,116.926,210.534,112.234,221.446,109.929z M161.451,143.673h2.522    h184.054h2.522c3.313,0,6.008,2.696,6.008,6.008s-2.695,6.008-6.008,6.008h-0.044H161.495h-0.044    c-3.313,0-6.008-2.696-6.008-6.008S158.138,143.673,161.451,143.673z M402.75,294.683h-39.628c-5.77,0-10.449,4.678-10.449,10.449    s4.679,10.449,10.449,10.449h39.628v123.276c-0.001,28.808-23.437,52.245-52.246,52.245h-189.01    c-28.808,0-52.245-23.437-52.245-52.245v-25.014h50.967c5.771,0,10.449-4.678,10.449-10.449s-4.678-10.449-10.449-10.449H109.25    v-28.234h50.967c5.771,0,10.449-4.678,10.449-10.449s-4.678-10.449-10.449-10.449H109.25V315.58h160.877    c5.77,0,10.449-4.678,10.449-10.449c0-5.771-4.679-10.449-10.449-10.449H109.25v-28.233h50.967    c5.771,0,10.449-4.678,10.449-10.449c0-5.771-4.678-10.449-10.449-10.449H109.25v-16.718c0-28.808,23.437-52.245,52.245-52.245    h189.011c28.808,0,52.245,23.437,52.245,52.245V294.683z"
   id="path2"
   style="fill:#2c96a7;fill-opacity:1" />&#10;	</g>&#10;</g>&#10;</svg>
