<?xml version="1.0" encoding="UTF-8" standalone="no"?>
<svg
   version="1.1"
   id="Layer_1"
   x="0px"
   y="0px"
   viewBox="0 0 64 64"
   enable-background="new 0 0 64 64"
   width="32"
   height="32"
   fill="white"
   stroke="white"
   xml:space="preserve"
   sodipodi:docname="a-sun.svg"
   inkscape:version="1.3 (0e150ed, 2023-07-21)"
   xmlns:inkscape="http://www.inkscape.org/namespaces/inkscape"
   xmlns:sodipodi="http://sodipodi.sourceforge.net/DTD/sodipodi-0.dtd"
   xmlns="http://www.w3.org/2000/svg"
   xmlns:svg="http://www.w3.org/2000/svg"><defs
   id="defs13" /><sodipodi:namedview
   id="namedview13"
   pagecolor="#ffffff"
   bordercolor="#000000"
   borderopacity="0.25"
   inkscape:showpageshadow="2"
   inkscape:pageopacity="0.0"
   inkscape:pagecheckerboard="0"
   inkscape:deskcolor="#d1d1d1"
   inkscape:zoom="26.4375"
   inkscape:cx="16"
   inkscape:cy="12.973995"
   inkscape:window-width="1920"
   inkscape:window-height="1043"
   inkscape:window-x="0"
   inkscape:window-y="0"
   inkscape:window-maximized="1"
   inkscape:current-layer="Layer_1" />&#10;<g
   id="Sum"
   transform="matrix(0.98139207,0,0,0.98139207,0.54122796,0.7155778)"
   style="fill:#2c96a7;fill-opacity:1;stroke:#2c96a7;stroke-opacity:1">&#10;	<path
   d="m 17,31.972799 c 0,8.295599 6.7157,15.020602 15,15.020602 8.2843,0 15,-6.725003 15,-15.020602 0,-8.2957 -6.715702,-15.020698 -15,-15.020698 -8.284298,0 -15,6.724998 -15,15.020698 z m 28,0 c 0,7.178 -5.831799,13.017802 -13,13.017802 -7.168184,0 -13,-5.839802 -13,-13.017802 0,-7.178098 5.831816,-13.017898 13,-13.017898 7.168201,0 13,5.8398 13,13.017898 z"
   id="path1"
   style="fill:#2c96a7;fill-opacity:1;stroke:#2c96a7;stroke-opacity:1" />&#10;	<path
   d="m 32.742199,11.7701 c 0.5527,0 1,-0.4479 1,-1.0014 V 1.0014 c 0,-0.5535 -0.4473,-1.0014 -1,-1.0014 -0.552799,0 -0.999998,0.4479 -0.999998,1.0014 v 9.7673 c 0,0.5535 0.447199,1.0014 0.999998,1.0014 z"
   id="path2"
   style="fill:#2c96a7;fill-opacity:1;stroke:#2c96a7;stroke-opacity:1" />&#10;	<path
   d="m 48.644501,4.6588001 c -0.4805,-0.2797003 -1.091801,-0.1145 -1.3662,0.3646999 l -4.8838,8.457899 c -0.277302,0.479201 -0.113301,1.0914 0.364315,1.3681 0.158184,0.0919 0.330085,0.135001 0.5,0.135001 0.345684,0 0.681583,-0.179 0.866184,-0.4997 L 49.008816,6.0267997 C 49.286099,5.5476999 49.122101,4.9355001 48.644501,4.6588001 Z"
   id="path3"
   style="fill:#2c96a7;fill-opacity:1;stroke:#2c96a7;stroke-opacity:1" />&#10;	<path
   d="m 50.7617,23.0287 c 0.168998,0 0.340801,-0.043 0.499,-0.134001 l 8.458,-4.883598 C 60.1963,17.7353 60.361298,17.1222 60.0849,16.643 59.808598,16.1658 59.201199,15.9995 58.7187,16.276301 l -8.458,4.8836 c -0.477501,0.275799 -0.642502,0.889 -0.366199,1.368099 0.184597,0.320801 0.521499,0.5007 0.867199,0.5007 z"
   id="path4"
   style="fill:#2c96a7;fill-opacity:1;stroke:#2c96a7;stroke-opacity:1" />&#10;	<path
   d="m 11.7676,32.742199 c 0,-0.553398 -0.4473,-1.001299 -0.999999,-1.001299 H 1.0000008 c -0.5527,0 -1,0.447901 -1,1.001299 0,0.553501 0.4473,1.0014 1,1.0014 h 9.7676002 c 0.552699,0 0.999999,-0.447899 0.999999,-1.0014 z"
   id="path5"
   style="fill:#2c96a7;fill-opacity:1;stroke:#2c96a7;stroke-opacity:1" />&#10;	<path
   d="M 4.2822008,18.011101 12.7402,22.894699 c 0.1582,0.091 0.329101,0.134001 0.499,0.134001 0.345701,0 0.682701,-0.179899 0.8672,-0.5007 0.276415,-0.479099 0.111415,-1.0923 -0.3662,-1.368099 l -8.4579992,-4.8836 C 4.8008156,15.9995 4.1904006,16.163799 3.9160006,16.643 c -0.2763998,0.4792 -0.1113,1.0923 0.3662002,1.368101 z"
   id="path6"
   style="fill:#2c96a7;fill-opacity:1;stroke:#2c96a7;stroke-opacity:1" />&#10;	<path
   d="m 20.741199,14.9845 c 0.169901,0 0.341801,-0.0431 0.499001,-0.134 0.4785,-0.2777 0.642616,-0.8899 0.3662,-1.3681 L 16.7236,5.0244999 C 16.446301,4.5443001 15.834001,4.3800998 15.357401,4.6578002 c -0.4785,0.2776999 -0.642586,0.8898997 -0.3662,1.3680997 l 4.8828,8.4579001 c 0.1856,0.3217 0.521499,0.5007 0.867198,0.5007 z"
   id="path7"
   style="fill:#2c96a7;fill-opacity:1;stroke:#2c96a7;stroke-opacity:1" />&#10;	<path
   d="m 32.742199,52.231899 c -0.552799,0 -0.999998,0.447899 -0.999998,1.0014 V 62.9986 c 0,0.553501 0.447199,1.0014 0.999998,1.0014 0.5527,0 1,-0.447899 1,-1.0014 v -9.765301 c 0,-0.553501 -0.4473,-1.0014 -1,-1.0014 z"
   id="path8"
   style="fill:#2c96a7;fill-opacity:1;stroke:#2c96a7;stroke-opacity:1" />&#10;	<path
   d="m 22.5273,49.8937 c -0.4814,-0.279599 -1.090799,-0.114399 -1.3662,0.364799 L 16.2773,58.7164 c -0.2773,0.479199 -0.1133,1.091301 0.3643,1.368099 0.158216,0.0919 0.330101,0.134899 0.5,0.134899 0.345701,0 0.6816,-0.178897 0.866216,-0.499698 L 22.8916,51.261799 C 23.168899,50.7826 23.0049,50.170502 22.5273,49.8937 Z"
   id="path9"
   style="fill:#2c96a7;fill-opacity:1;stroke:#2c96a7;stroke-opacity:1" />&#10;	<path
   d="m 13.482401,42.392201 -8.4580003,4.883701 c -0.4775,0.275699 -0.6425853,0.888897 -0.3662,1.368099 0.1846147,0.320698 0.5215001,0.500698 0.8671999,0.500698 0.1689,0 0.3407998,-0.0431 0.4990001,-0.133999 l 8.4580003,-4.883701 c 0.4775,-0.2757 0.642599,-0.888901 0.366199,-1.368099 -0.2754,-0.478199 -0.884699,-0.644402 -1.366199,-0.366699 z"
   id="path10"
   style="fill:#2c96a7;fill-opacity:1;stroke:#2c96a7;stroke-opacity:1" />&#10;	<path
   d="m 63,31.7409 h -9.765602 c -0.552799,0 -1,0.447901 -1,1.001299 0,0.553501 0.447201,1.0014 1,1.0014 H 63 c 0.5527,0 1,-0.447899 1,-1.0014 C 64,32.188801 63.5527,31.7409 63,31.7409 Z"
   id="path11"
   style="fill:#2c96a7;fill-opacity:1;stroke:#2c96a7;stroke-opacity:1" />&#10;	<path
   d="m 58.975601,47.275902 -8.458,-4.883701 c -0.480503,-0.2767 -1.091785,-0.1115 -1.366203,0.366699 -0.276398,0.479198 -0.111397,1.092399 0.366203,1.368099 l 8.458,4.883701 c 0.158215,0.0909 0.329098,0.133999 0.498997,0.133999 0.345703,0 0.682602,-0.18 0.867218,-0.500698 0.276382,-0.479202 0.111282,-1.0924 -0.366215,-1.368099 z"
   id="path12"
   style="fill:#2c96a7;fill-opacity:1;stroke:#2c96a7;stroke-opacity:1" />&#10;	<path
   d="M 42.837898,50.258499 C 42.5625,49.779301 41.951199,49.614101 41.471699,49.8937 c -0.4776,0.276802 -0.641598,0.8889 -0.3643,1.368099 l 4.8838,8.457901 c 0.184617,0.320801 0.520501,0.499698 0.8662,0.499698 0.169899,0 0.341801,-0.043 0.5,-0.134899 0.477501,-0.276798 0.641602,-0.8889 0.3643,-1.368099 z"
   id="path13"
   style="fill:#2c96a7;fill-opacity:1;stroke:#2c96a7;stroke-opacity:1" />&#10;</g>&#10;</svg>
